<?xml version="1.0" encoding="UTF-8" standalone="no"?>
<svg width="260px" height="17px" viewBox="0 0 260 17" version="1.1" xmlns="http://www.w3.org/2000/svg" xmlns:xlink="http://www.w3.org/1999/xlink">
    <!-- Generator: Sketch 3.6 (26304) - http://www.bohemiancoding.com/sketch -->
    <title>caeslogo</title>
    <desc>Created with Sketch.</desc>
    <defs></defs>
    <g id="Page-1" stroke="none" stroke-width="1" fill="none" fill-rule="evenodd" fill-opacity="0.8">
        <g id="content-copy" transform="translate(-1140.000000, -43.000000)" fill="#FFFFFF">
            <g id="header">
                <g id="caeslogo" transform="translate(1140.000000, 43.000000)">
                    <path d="M87.2459893,15.0343827 L88.825637,10.8850995 L89.0984416,11.1212093 C90.0665706,11.9063614 91.3812705,12.5747605 92.620458,12.6012361 C93.7295724,12.6264096 94.2708167,12.3330084 94.123284,11.3998537 C94.0145986,10.7032428 93.2223741,10.5804136 92.7282704,10.48406 L91.6440358,10.2687834 C89.534929,9.87599034 87.7606079,8.58172648 87.7606079,6.12991676 C87.7606079,2.42160339 90.9735913,0.343055556 94.2057801,0.343055556 C95.9032794,0.343055556 97.4624122,0.773174768 98.92028,1.71631205 L97.5510191,5.39380961 C96.7993879,4.85518404 95.6623384,4.09780965 94.2236761,4.04616062 C93.7505238,4.02836558 92.6654162,4.27532605 93.0132967,5.36863614 C93.1634483,5.83477946 93.8347658,6.03052494 94.2472464,6.12991676 L95.4724664,6.42375199 C97.7570412,6.95369705 99.4117647,8.24709286 99.4117647,10.8955161 C99.4117647,14.6224926 96.1782664,16.4666667 92.9674655,16.4666667 C91.0927523,16.4666667 88.9229737,15.9358536 87.2459893,15.0343827" id="Fill-1"></path>
                    <path d="M80.2941176,0.343055556 L85.855615,0.343055556 L85.855615,15.7805556 L80.2941176,15.7805556 L80.2941176,0.343055556 Z" id="Fill-3"></path>
                    <path d="M73.9906216,0.343055556 L79.5989305,0.343055556 L73.8703163,15.7805556 L69.3195643,15.7805556 L63.6096257,0.343055556 L69.1983904,0.343055556 L71.5949403,9.65861098 L73.9906216,0.343055556 Z" id="Fill-5"></path>
                    <path d="M58.6971794,4.79876838 L58.6971794,4.79876838 C58.798723,5.45574711 59.794733,10.1805941 59.794733,10.1805941 L57.6066897,10.1805941 L58.6971794,4.79876838 Z M50.4010695,15.7805556 L56.1846382,15.7805556 L56.6248075,13.8421898 L60.7501255,13.8421898 L61.2989023,15.7805556 L67.0855615,15.7805556 L61.6688741,0.343055556 L55.6018664,0.343055556 L50.4010695,15.7805556 Z" id="Fill-6"></path>
                    <path d="M35.802139,0.343055556 L41.4734259,0.343055556 C46.534283,0.343055556 50.4010695,2.61055354 50.4010695,8.28508404 C50.4010695,12.8565074 47.2496715,15.7805556 42.8238368,15.7805556 L35.802139,15.772413 L35.802139,0.343055556 Z M41.3754936,11.3484134 L41.7474605,11.3484134 C43.571723,11.3484134 44.925208,10.2795909 44.925208,8.26494183 C44.925208,6.09601208 43.7263066,4.88619412 41.7219893,4.88619412 L41.3754936,4.88619412 L41.3754936,11.3484134 Z" id="Fill-7"></path>
                    <path d="M32.8774283,0.891051666 L33.1730228,3.42923914 C33.2424194,4.0315864 33.5946731,5.47713397 33.159407,5.28307768 C32.8870912,5.16415381 32.6635286,4.5089992 32.441723,3.92683035 C32.3284045,3.63102332 31.7890434,2.23398983 31.6480541,2.13180975 C30.9659468,1.63335988 29.2657297,1.07136945 28.1158541,1.06578819 C24.6280152,1.05333767 22.3207973,3.56834143 22.3207973,8.03206523 C22.3207973,11.2335645 23.8883703,15.0734747 27.8769189,15.0734747 C29.3056986,15.0734747 32.0433513,14.6338428 32.7878276,12.6460539 C33.1247087,11.7461822 33.4334797,10.9467734 33.6557246,11.1897731 C33.8217494,11.3666562 33.6060928,12.0874981 33.5068293,12.4751813 C33.0364256,14.317428 33.0118294,14.8764131 32.8629341,14.9472522 C31.0608181,15.832956 28.7496473,16.1236111 26.7270433,16.1236111 C20.2951188,16.1236111 18.0748663,12.4558615 18.0748663,8.78897059 C18.0748663,2.42504081 22.073517,-0.255683572 28.2717769,0.0190863837 C29.8397891,0.0761870152 31.4091189,0.348810331 32.8774283,0.891051666" id="Fill-8"></path>
                    <path d="M13.6680277,1.14583776 L12.6407677,0.794012538 C12.2974719,0.489068669 12.7169583,0.40390804 12.7169583,0.40390804 C12.7169583,0.40390804 14.2009243,0.674443574 17.8974839,0.366488975 C17.8974839,0.366488975 18.218448,0.429284187 17.9968821,0.685196179 L16.7839621,1.19529975 C15.9940316,1.53422185 15.9940316,1.33981475 15.9940316,2.19056084 L15.9870255,10.0864135 C15.9870255,16.2618494 9.59226632,16.1233559 8.34738133,16.1233559 C7.75318191,16.1233559 1.88825416,16.1233559 1.88825416,11.165975 L1.88825416,2.80733024 C1.88825416,1.35056736 2.04720359,1.38841653 1.55415382,1.21809527 L0.070625731,0.67100274 C0.070625731,0.67100274 -0.181591559,0.321328036 0.267232612,0.344123558 C1.47971469,0.40390804 3.23472667,0.658959823 7.36303329,0.366488975 C7.36303329,0.366488975 7.72209263,0.452509813 7.48563892,0.707561596 L6.25170085,1.04863422 C5.3120163,1.46239445 5.43593556,1.14583776 5.41141443,2.09335729 L5.44119008,10.3350137 C5.44119008,12.3556432 6.49953937,14.8579894 9.82915791,14.8579894 C14.3616252,14.8579894 14.4040993,11.0068365 14.4040993,10.1509291 L14.412419,1.98669145 C14.4610234,1.21809527 14.3616252,1.4370183 13.6680277,1.14583776" id="Fill-9"></path>
                    <path d="M110.483316,2.24735694 C110.399198,2.13483472 110.303262,2.03637778 110.196203,1.95198611 C110.088797,1.86759444 109.973396,1.79658194 109.85,1.73894861 C109.726257,1.68131528 109.596604,1.63774722 109.461043,1.60824444 C109.325134,1.57874167 109.187834,1.56399028 109.049492,1.56399028 C108.799572,1.56399028 108.571551,1.60824444 108.36508,1.69675278 C108.158957,1.78491806 107.98238,1.90704583 107.835695,2.06245 C107.689011,2.21785417 107.575,2.40001667 107.493316,2.60928056 C107.411979,2.81820139 107.37131,3.04324583 107.37131,3.28441389 C107.37131,3.53107083 107.411979,3.7574875 107.493316,3.96400694 C107.575,4.17018333 107.690401,4.34788611 107.839866,4.49677222 C107.988984,4.64531528 108.168342,4.76195417 108.377246,4.84634583 C108.586497,4.9307375 108.81869,4.97293333 109.073824,4.97293333 C109.206952,4.97293333 109.339385,4.95749583 109.471123,4.92696389 C109.602861,4.89608889 109.729037,4.85183472 109.85,4.79420139 C109.970615,4.73656806 110.084973,4.66761389 110.192032,4.58699583 C110.299439,4.50672083 110.396417,4.41546806 110.483316,4.31358056 L110.483316,6.24738472 C110.347406,6.28752222 110.21984,6.32594444 110.100267,6.36196528 C109.981043,6.39832917 109.864251,6.42886111 109.750241,6.45459028 C109.635882,6.47997639 109.521176,6.49987361 109.405775,6.514625 C109.290374,6.52937639 109.169064,6.53692361 109.041497,6.53692361 C108.601444,6.53692361 108.179813,6.45767778 107.776604,6.29987222 C107.373396,6.14172361 107.00738,5.91633611 106.678904,5.62439583 C106.33131,5.3135875 106.075829,4.96024028 105.913155,4.56504028 C105.750134,4.16984028 105.668449,3.74033472 105.668449,3.27652361 C105.668449,2.85044861 105.747353,2.44152639 105.904813,2.05044306 C106.062273,1.65901667 106.293075,1.31081528 106.597219,1.00515278 C106.752246,0.849748611 106.921872,0.709781944 107.106444,0.584909722 C107.291016,0.460380556 107.486016,0.354376389 107.691096,0.267583333 C107.896176,0.180447222 108.108556,0.113894444 108.328583,0.0682680556 C108.54861,0.0229847222 108.768289,0 108.988316,0 C109.251791,0 109.505535,0.0274444444 109.750241,0.0823333333 C109.994599,0.137565278 110.238957,0.214409722 110.483316,0.313552778 L110.483316,2.24735694 Z" id="Fill-11"></path>
                    <path d="M115.056257,1.56399028 C114.811898,1.56399028 114.582487,1.60893056 114.368021,1.69881111 C114.153209,1.78834861 113.96516,1.90910417 113.803529,2.06039167 C113.642246,2.21202222 113.514332,2.38595139 113.420829,2.58320833 C113.326979,2.78012222 113.280401,2.98595556 113.280401,3.20036528 C113.280401,3.46829167 113.326979,3.71529167 113.420829,3.94205139 C113.514332,4.16846806 113.642246,4.36400972 113.803529,4.52901944 C113.96516,4.69368611 114.153209,4.82233194 114.368021,4.91495694 C114.582487,5.00723889 114.811898,5.05355139 115.056257,5.05355139 C115.300615,5.05355139 115.530722,5.00723889 115.746578,4.91495694 C115.962433,4.82233194 116.150481,4.69368611 116.310722,4.52901944 C116.470963,4.36400972 116.598182,4.16846806 116.691684,3.94205139 C116.785535,3.71529167 116.832112,3.46829167 116.832112,3.20036528 C116.832112,2.98595556 116.785535,2.78012222 116.691684,2.58320833 C116.598182,2.38595139 116.470963,2.21202222 116.310722,2.06039167 C116.150481,1.90910417 115.962433,1.78834861 115.746578,1.69881111 C115.530722,1.60893056 115.300615,1.56399028 115.056257,1.56399028 M115.056257,0 C115.35762,0 115.653075,0.0356777778 115.942273,0.106690278 C116.231471,0.177702778 116.505027,0.278904167 116.762941,0.410294444 C117.020856,0.541684722 117.25861,0.701548611 117.475856,0.890572222 C117.693102,1.07959583 117.879759,1.29263333 118.035829,1.52968472 C118.191898,1.76707917 118.314251,2.02505694 118.40254,2.30361806 C118.490829,2.58252222 118.534973,2.87857917 118.534973,3.19213194 C118.534973,3.69608056 118.44877,4.15783333 118.276364,4.57704722 C118.103957,4.99660417 117.862727,5.35715556 117.553369,5.65870139 C117.243663,5.95990417 116.876257,6.19524028 116.451497,6.36402361 C116.02639,6.53280694 115.56131,6.61719861 115.056257,6.61719861 C114.719439,6.61719861 114.399652,6.57911944 114.096898,6.50261806 C113.794144,6.42645972 113.514332,6.317025 113.257807,6.175 C113.001283,6.032975 112.769091,5.86076111 112.56123,5.65870139 C112.353717,5.45629861 112.177139,5.22782361 112.031845,4.97327639 C111.886551,4.71838611 111.774626,4.44188333 111.695722,4.14308194 C111.616818,3.8439375 111.57754,3.52729722 111.57754,3.19213194 C111.57754,2.87857917 111.621684,2.58252222 111.709973,2.30361806 C111.798262,2.02505694 111.920963,1.76707917 112.07877,1.52968472 C112.23623,1.29263333 112.422888,1.07959583 112.638743,0.890572222 C112.854599,0.701548611 113.091658,0.541684722 113.349572,0.410294444 C113.607487,0.278904167 113.881043,0.177702778 114.170241,0.106690278 C114.459439,0.0356777778 114.754893,0 115.056257,0" id="Fill-12"></path>
                    <path d="M121.553128,4.84017083 L123.516337,4.84017083 L123.516337,6.20690417 L119.919786,6.20690417 L119.919786,0 L121.553128,0 L121.553128,4.84017083 Z" id="Fill-13"></path>
                    <path d="M126.767032,4.84017083 L128.730241,4.84017083 L128.730241,6.20690417 L125.13369,6.20690417 L125.13369,0 L126.767032,0 L126.767032,4.84017083 Z" id="Fill-14"></path>
                    <path d="M131.633342,1.36673333 L131.633342,2.40379028 L133.478717,2.40379028 L133.478717,3.77086667 L131.633342,3.77086667 L131.633342,4.84017083 L133.580561,4.84017083 L133.580561,6.20690417 L130,6.20690417 L130,0 L133.580561,0 L133.580561,1.36673333 L131.633342,1.36673333 Z" id="Fill-15"></path>
                    <path d="M141.804626,2.94684722 C141.799064,3.17189167 141.789679,3.39041806 141.776123,3.60208333 C141.762567,3.81374861 141.733369,4.02095417 141.688529,4.22335694 C141.64369,4.42575972 141.58008,4.62404583 141.497005,4.81821528 C141.414278,5.01238472 141.302353,5.20621111 141.160882,5.39900833 C141.006203,5.61101667 140.833797,5.79386528 140.643663,5.94789722 C140.453529,6.10192917 140.248449,6.22851667 140.02877,6.32765972 C139.808743,6.42714583 139.576551,6.49987361 139.332193,6.54687222 C139.087834,6.59387083 138.833743,6.61719861 138.570267,6.61719861 C138.075989,6.61719861 137.623422,6.53829583 137.211872,6.38014722 C136.800668,6.22199861 136.446818,5.99866944 136.150668,5.71084583 C135.854866,5.42267917 135.624759,5.07756528 135.460348,4.67550417 C135.295936,4.27344306 135.213904,3.8285 135.213904,3.340675 C135.213904,2.83706944 135.296631,2.37943333 135.462433,1.96776667 C135.627888,1.55644306 135.860775,1.20549722 136.161096,0.914586111 C136.46107,0.624018056 136.820134,0.398630556 137.238289,0.239109722 C137.656444,0.0799319444 138.119439,0 138.627273,0 C139.273797,0 139.840027,0.144083333 140.325963,0.43225 C140.812246,0.720416667 141.190775,1.15506806 141.462594,1.73689028 L139.910588,2.37600278 C139.853583,2.22848889 139.781631,2.09469722 139.694733,1.97394167 C139.607834,1.85318611 139.50738,1.74958333 139.393369,1.66244722 C139.279011,1.57531111 139.151444,1.50841528 139.010321,1.46141667 C138.869198,1.41441806 138.715561,1.39109028 138.550107,1.39109028 C138.28107,1.39109028 138.045053,1.44872361 137.841364,1.56399028 C137.637674,1.67925694 137.467005,1.82985833 137.330053,2.0161375 C137.192754,2.20241667 137.089866,2.41202361 137.020348,2.64530139 C136.951176,2.87857917 136.916417,3.11288611 136.916417,3.34890833 C136.916417,3.59007639 136.952567,3.82644167 137.024519,4.05834722 C137.096471,4.29025278 137.202487,4.49780139 137.342219,4.68167917 C137.481952,4.86521389 137.655749,5.01238472 137.86361,5.12387778 C138.071471,5.23502778 138.309572,5.29060278 138.57861,5.29060278 C138.755187,5.29060278 138.919947,5.26796111 139.073583,5.22233472 C139.226872,5.17670833 139.36139,5.10912639 139.476791,5.01924583 C139.592193,4.92936528 139.68639,4.81752917 139.759733,4.68339444 C139.833075,4.54960278 139.877914,4.39282639 139.894251,4.21306528 L138.558102,4.21306528 L138.558102,2.94684722 L141.804626,2.94684722 Z" id="Fill-16"></path>
                    <path d="M144.841898,1.36673333 L144.841898,2.40379028 L146.687273,2.40379028 L146.687273,3.77086667 L144.841898,3.77086667 L144.841898,4.84017083 L146.789118,4.84017083 L146.789118,6.20690417 L143.208556,6.20690417 L143.208556,0 L146.789118,0 L146.789118,1.36673333 L144.841898,1.36673333 Z" id="Fill-17"></path>
                    <path d="M153.687112,2.83192361 C153.51262,2.83192361 153.348556,2.86382778 153.195615,2.92797917 C153.042674,2.99247361 152.908155,3.0782375 152.793102,3.1863 C152.677701,3.29470556 152.586283,3.41889167 152.519545,3.55954444 C152.45246,3.70019722 152.419439,3.84736806 152.419439,4.00002778 C152.419439,4.19179583 152.45246,4.36812639 152.519545,4.52970556 C152.586283,4.69162778 152.677701,4.83090833 152.793102,4.94891944 C152.908155,5.0665875 153.042674,5.15852639 153.195615,5.22439306 C153.348556,5.29060278 153.51262,5.32353611 153.687112,5.32353611 C153.861604,5.32353611 154.026016,5.29060278 154.18,5.22439306 C154.334332,5.15852639 154.468503,5.0665875 154.582861,4.94891944 C154.697219,4.83090833 154.787941,4.69162778 154.854679,4.52970556 C154.921765,4.36812639 154.955134,4.19179583 154.955134,4.00002778 C154.955134,3.84736806 154.921765,3.70019722 154.854679,3.55954444 C154.787941,3.41889167 154.697219,3.29470556 154.582861,3.1863 C154.468503,3.0782375 154.334332,2.99247361 154.18,2.92797917 C154.026016,2.86382778 153.861604,2.83192361 153.687112,2.83192361 M153.687112,1.71527778 C153.902273,1.71527778 154.113262,1.74066389 154.319733,1.79143611 C154.526203,1.84186528 154.721551,1.91425 154.905775,2.00824722 C155.09,2.10190139 155.259626,2.21613889 155.415,2.35130278 C155.569679,2.48578056 155.703155,2.63809722 155.814733,2.80756667 C155.925963,2.97703611 156.013209,3.16125694 156.076471,3.36022917 C156.139385,3.55920139 156.171016,3.77018056 156.171016,3.99453889 C156.171016,4.35406111 156.109492,4.6837375 155.986096,4.983225 C155.863048,5.2827125 155.691337,5.54034722 155.46992,5.75544306 C155.24885,5.97053889 154.986765,6.13897917 154.683316,6.25904861 C154.379866,6.37980417 154.047914,6.44018194 153.687112,6.44018194 C153.446925,6.44018194 153.218209,6.4127375 153.002005,6.35819167 C152.785802,6.30364583 152.586283,6.22611528 152.403102,6.12422778 C152.21992,6.02302639 152.054118,5.89986944 151.905695,5.75544306 C151.757273,5.61101667 151.631444,5.44806528 151.527513,5.26590278 C151.42393,5.08408333 151.343984,4.88648333 151.288021,4.67344583 C151.231711,4.45972222 151.203209,4.23364861 151.203209,3.99453889 C151.203209,3.77018056 151.23484,3.55920139 151.298102,3.36022917 C151.361016,3.16125694 151.448957,2.97703611 151.56123,2.80756667 C151.673503,2.63809722 151.806979,2.48578056 151.960963,2.35130278 C152.115294,2.21613889 152.284225,2.10190139 152.468449,2.00824722 C152.652674,1.91425 152.848021,1.84186528 153.05484,1.79143611 C153.260963,1.74066389 153.471952,1.71527778 153.687112,1.71527778" id="Fill-18"></path>
                    <path d="M157.930882,3.03432639 L157.930882,3.77464028 L159.213503,3.77464028 L159.213503,4.75097639 L157.930882,4.75097639 L157.930882,6.49026806 L156.764706,6.49026806 L156.764706,2.05833333 L159.344198,2.05833333 L159.344198,3.03432639 L157.930882,3.03432639 Z" id="Fill-19"></path>
                    <path d="M166.332914,1.91768056 L166.316578,1.91768056 L165.640508,3.89573889 L167.000989,3.89573889 L166.332914,1.91768056 Z M165.188289,5.12970972 L164.756578,6.20724722 L163.02139,6.20724722 L165.440989,0 L167.22484,0 L169.595775,6.20724722 L167.852246,6.20724722 L167.441043,5.12970972 L165.188289,5.12970972 Z" id="Fill-20"></path>
                    <path d="M176.911578,2.94684722 C176.906016,3.17189167 176.896631,3.39041806 176.883075,3.60208333 C176.869519,3.81374861 176.840321,4.02095417 176.795481,4.22335694 C176.750642,4.42575972 176.687032,4.62404583 176.603957,4.81821528 C176.52123,5.01238472 176.409305,5.20621111 176.267834,5.39900833 C176.113155,5.61101667 175.940749,5.79386528 175.750615,5.94789722 C175.560481,6.10192917 175.355401,6.22851667 175.135722,6.32765972 C174.915695,6.42714583 174.683503,6.49987361 174.439144,6.54687222 C174.194786,6.59387083 173.940695,6.61719861 173.677219,6.61719861 C173.182941,6.61719861 172.730374,6.53829583 172.318824,6.38014722 C171.90762,6.22199861 171.55377,5.99866944 171.25762,5.71084583 C170.961818,5.42267917 170.731711,5.07756528 170.567299,4.67550417 C170.402888,4.27344306 170.320856,3.8285 170.320856,3.340675 C170.320856,2.83706944 170.403583,2.37943333 170.569385,1.96776667 C170.73484,1.55644306 170.967727,1.20549722 171.268048,0.914586111 C171.568021,0.624018056 171.927086,0.398630556 172.345241,0.239109722 C172.763396,0.0799319444 173.22639,0 173.734225,0 C174.380749,0 174.946979,0.144083333 175.432914,0.43225 C175.919198,0.720416667 176.297727,1.15506806 176.569545,1.73689028 L175.01754,2.37600278 C174.960535,2.22848889 174.888583,2.09469722 174.801684,1.97394167 C174.714786,1.85318611 174.614332,1.74958333 174.500321,1.66244722 C174.385963,1.57531111 174.258396,1.50841528 174.117273,1.46141667 C173.97615,1.41441806 173.822513,1.39109028 173.657059,1.39109028 C173.388021,1.39109028 173.152005,1.44872361 172.948316,1.56399028 C172.744626,1.67925694 172.573957,1.82985833 172.437005,2.0161375 C172.299706,2.20241667 172.196818,2.41202361 172.127299,2.64530139 C172.058128,2.87857917 172.023369,3.11288611 172.023369,3.34890833 C172.023369,3.59007639 172.059519,3.82644167 172.131471,4.05834722 C172.203422,4.29025278 172.309439,4.49780139 172.449171,4.68167917 C172.588904,4.86521389 172.762701,5.01238472 172.970561,5.12387778 C173.178422,5.23502778 173.416524,5.29060278 173.685561,5.29060278 C173.862139,5.29060278 174.026898,5.26796111 174.180535,5.22233472 C174.333824,5.17670833 174.468342,5.10912639 174.583743,5.01924583 C174.699144,4.92936528 174.793342,4.81752917 174.866684,4.68339444 C174.940027,4.54960278 174.984866,4.39282639 175.001203,4.21306528 L173.665053,4.21306528 L173.665053,2.94684722 L176.911578,2.94684722 Z" id="Fill-21"></path>
                    <path d="M180.296444,2.7818375 L180.455294,2.7818375 C180.588422,2.7818375 180.722941,2.77326111 180.858503,2.75576528 C180.994412,2.73826944 181.116417,2.70224861 181.225214,2.64701667 C181.333663,2.59212778 181.421952,2.51459722 181.49008,2.41408194 C181.557861,2.31356667 181.591925,2.17874583 181.591925,2.0099625 C181.591925,1.84117917 181.557861,1.70567222 181.49008,1.60378472 C181.421952,1.50224028 181.333663,1.42368056 181.225214,1.36879167 C181.116417,1.31390278 180.994412,1.27753889 180.858503,1.26004306 C180.722941,1.24289028 180.588422,1.23397083 180.455294,1.23397083 L180.296444,1.23397083 L180.296444,2.7818375 Z M183.893342,6.20690417 L181.856444,6.20690417 L180.316952,3.81889444 L180.296444,3.81889444 L180.296444,6.20690417 L178.663102,6.20690417 L178.663102,0 L181.107032,0 C181.416738,0 181.705241,0.0373930556 181.97254,0.112522222 C182.240187,0.187651389 182.471684,0.302575 182.667032,0.458322222 C182.862727,0.613726389 183.016016,0.811326389 183.127594,1.05112222 C183.238824,1.29091806 183.294439,1.57702639 183.294439,1.90944722 C183.294439,2.12385694 183.264545,2.32831806 183.204759,2.5224875 C183.144973,2.717 183.056684,2.89161528 182.939893,3.04701944 C182.823449,3.20276667 182.679198,3.33381389 182.508182,3.44119028 C182.337166,3.54822361 182.140428,3.62198056 181.91762,3.66211806 L183.893342,6.20690417 Z" id="Fill-22"></path>
                    <path d="M186.900722,6.20724722 L185.26738,6.20724722 L185.26738,0 L186.900722,0 L186.900722,6.20724722 Z" id="Fill-23"></path>
                    <path d="M193.558182,2.24735694 C193.474064,2.13483472 193.378128,2.03637778 193.27107,1.95198611 C193.163663,1.86759444 193.048262,1.79658194 192.924866,1.73894861 C192.801123,1.68131528 192.671471,1.63774722 192.535909,1.60824444 C192.4,1.57874167 192.262701,1.56399028 192.124358,1.56399028 C191.874439,1.56399028 191.646417,1.60824444 191.439947,1.69675278 C191.233824,1.78491806 191.057246,1.90704583 190.910561,2.06245 C190.763877,2.21785417 190.649866,2.40001667 190.568182,2.60928056 C190.486845,2.81820139 190.446176,3.04324583 190.446176,3.28441389 C190.446176,3.53107083 190.486845,3.7574875 190.568182,3.96400694 C190.649866,4.17018333 190.765267,4.34788611 190.914733,4.49677222 C191.06385,4.64531528 191.243209,4.76195417 191.452112,4.84634583 C191.661364,4.9307375 191.893556,4.97293333 192.14869,4.97293333 C192.281818,4.97293333 192.414251,4.95749583 192.545989,4.92696389 C192.677727,4.89608889 192.803904,4.85183472 192.924866,4.79420139 C193.045481,4.73656806 193.15984,4.66761389 193.266898,4.58699583 C193.374305,4.50672083 193.471283,4.41546806 193.558182,4.31358056 L193.558182,6.24738472 C193.422273,6.28752222 193.294706,6.32594444 193.175134,6.36196528 C193.055909,6.39832917 192.939118,6.42886111 192.825107,6.45459028 C192.710749,6.47997639 192.596043,6.49987361 192.480642,6.514625 C192.365241,6.52937639 192.24393,6.53692361 192.116364,6.53692361 C191.67631,6.53692361 191.254679,6.45767778 190.851471,6.29987222 C190.448262,6.14172361 190.082246,5.91633611 189.75377,5.62439583 C189.406176,5.3135875 189.150695,4.96024028 188.988021,4.56504028 C188.825,4.16984028 188.743316,3.74033472 188.743316,3.27652361 C188.743316,2.85044861 188.822219,2.44152639 188.979679,2.05044306 C189.137139,1.65901667 189.367941,1.31081528 189.672086,1.00515278 C189.827112,0.849748611 189.996738,0.709781944 190.18131,0.584909722 C190.365882,0.460380556 190.560882,0.354376389 190.765963,0.267583333 C190.971043,0.180447222 191.183422,0.113894444 191.403449,0.0682680556 C191.623476,0.0229847222 191.843155,0 192.063182,0 C192.326658,0 192.580401,0.0274444444 192.825107,0.0823333333 C193.069465,0.137565278 193.313824,0.214409722 193.558182,0.313552778 L193.558182,2.24735694 Z" id="Fill-24"></path>
                    <path d="M200.834358,0 L200.834358,3.48956111 C200.834358,3.69059167 200.829492,3.88887778 200.820107,4.08441944 C200.810722,4.28030417 200.783957,4.47104306 200.740508,4.65732222 C200.697059,4.84360139 200.631364,5.0233625 200.543075,5.19591944 C200.454786,5.36881944 200.333476,5.53039861 200.178449,5.68065694 C200.048102,5.80930278 199.900027,5.91702222 199.734572,6.00415833 C199.56877,6.09129444 199.394973,6.16230694 199.213182,6.21719583 C199.03139,6.27208472 198.844385,6.31153611 198.653209,6.33589306 C198.461684,6.35990694 198.275027,6.37191389 198.092888,6.37191389 C197.908316,6.37191389 197.720267,6.35990694 197.528743,6.33589306 C197.337219,6.31153611 197.151257,6.27208472 196.970856,6.21719583 C196.790107,6.16230694 196.617005,6.09129444 196.451551,6.00415833 C196.285749,5.91702222 196.137674,5.80930278 196.007326,5.68065694 C195.849866,5.53039861 195.727166,5.36881944 195.638877,5.19591944 C195.550588,5.0233625 195.484545,4.84360139 195.441096,4.65732222 C195.397647,4.47104306 195.37123,4.28030417 195.361845,4.08441944 C195.35246,3.88887778 195.347594,3.69059167 195.347594,3.48956111 L195.347594,0 L196.980936,0 L196.980936,3.26829028 C196.980936,3.402425 196.984412,3.53793194 196.991016,3.67446806 C196.997968,3.81100417 197.012914,3.94170833 197.035856,4.06658056 C197.059144,4.19110972 197.094251,4.30774861 197.141872,4.41615417 C197.189492,4.52455972 197.254492,4.61924306 197.337219,4.69951806 C197.420294,4.78013611 197.522834,4.84291528 197.64484,4.88854167 C197.767193,4.93416806 197.91631,4.95680972 198.092888,4.95680972 C198.266684,4.95680972 198.415455,4.93416806 198.53885,4.88854167 C198.662594,4.84291528 198.765134,4.78013611 198.846471,4.69951806 C198.928155,4.61924306 198.99246,4.52455972 199.04008,4.41615417 C199.087701,4.30774861 199.123503,4.19110972 199.147834,4.06658056 C199.172513,3.94170833 199.18746,3.81100417 199.192674,3.67446806 C199.198235,3.53793194 199.201016,3.402425 199.201016,3.26829028 L199.201016,0 L200.834358,0 Z" id="Fill-25"></path>
                    <path d="M204.627995,4.84017083 L206.591203,4.84017083 L206.591203,6.20690417 L202.994652,6.20690417 L202.994652,0 L204.627995,0 L204.627995,4.84017083 Z" id="Fill-26"></path>
                    <path d="M209.804011,6.20724722 L208.170668,6.20724722 L208.170668,1.36707639 L206.818182,1.36707639 L206.818182,0 L211.156497,0 L211.156497,1.36707639 L209.804011,1.36707639 L209.804011,6.20724722 Z" id="Fill-27"></path>
                    <path d="M218.214037,0 L218.214037,3.48956111 C218.214037,3.69059167 218.209171,3.88887778 218.199786,4.08441944 C218.190401,4.28030417 218.163636,4.47104306 218.120187,4.65732222 C218.076738,4.84360139 218.011043,5.0233625 217.922754,5.19591944 C217.834465,5.36881944 217.713155,5.53039861 217.558128,5.68065694 C217.427781,5.80930278 217.279706,5.91702222 217.114251,6.00415833 C216.948449,6.09129444 216.774652,6.16230694 216.592861,6.21719583 C216.41107,6.27208472 216.224064,6.31153611 216.032888,6.33589306 C215.841364,6.35990694 215.654706,6.37191389 215.472567,6.37191389 C215.287995,6.37191389 215.099947,6.35990694 214.908422,6.33589306 C214.716898,6.31153611 214.530936,6.27208472 214.350535,6.21719583 C214.169786,6.16230694 213.996684,6.09129444 213.83123,6.00415833 C213.665428,5.91702222 213.517353,5.80930278 213.387005,5.68065694 C213.229545,5.53039861 213.106845,5.36881944 213.018556,5.19591944 C212.930267,5.0233625 212.864225,4.84360139 212.820775,4.65732222 C212.777326,4.47104306 212.750909,4.28030417 212.741524,4.08441944 C212.732139,3.88887778 212.727273,3.69059167 212.727273,3.48956111 L212.727273,0 L214.360615,0 L214.360615,3.26829028 C214.360615,3.402425 214.364091,3.53793194 214.370695,3.67446806 C214.377647,3.81100417 214.392594,3.94170833 214.415535,4.06658056 C214.438824,4.19110972 214.47393,4.30774861 214.521551,4.41615417 C214.569171,4.52455972 214.634171,4.61924306 214.716898,4.69951806 C214.799973,4.78013611 214.902513,4.84291528 215.024519,4.88854167 C215.146872,4.93416806 215.295989,4.95680972 215.472567,4.95680972 C215.646364,4.95680972 215.795134,4.93416806 215.918529,4.88854167 C216.042273,4.84291528 216.144813,4.78013611 216.22615,4.69951806 C216.307834,4.61924306 216.372139,4.52455972 216.419759,4.41615417 C216.46738,4.30774861 216.503182,4.19110972 216.527513,4.06658056 C216.552193,3.94170833 216.567139,3.81100417 216.572353,3.67446806 C216.577914,3.53793194 216.580695,3.402425 216.580695,3.26829028 L216.580695,0 L218.214037,0 Z" id="Fill-28"></path>
                    <path d="M222.007674,2.7818375 L222.166524,2.7818375 C222.299652,2.7818375 222.434171,2.77326111 222.569733,2.75576528 C222.705642,2.73826944 222.827647,2.70224861 222.936444,2.64701667 C223.044893,2.59212778 223.133182,2.51459722 223.20131,2.41408194 C223.269091,2.31356667 223.303155,2.17874583 223.303155,2.0099625 C223.303155,1.84117917 223.269091,1.70567222 223.20131,1.60378472 C223.133182,1.50224028 223.044893,1.42368056 222.936444,1.36879167 C222.827647,1.31390278 222.705642,1.27753889 222.569733,1.26004306 C222.434171,1.24289028 222.299652,1.23397083 222.166524,1.23397083 L222.007674,1.23397083 L222.007674,2.7818375 Z M225.604572,6.20690417 L223.567674,6.20690417 L222.028182,3.81889444 L222.007674,3.81889444 L222.007674,6.20690417 L220.374332,6.20690417 L220.374332,0 L222.818262,0 C223.127968,0 223.416471,0.0373930556 223.68377,0.112522222 C223.951417,0.187651389 224.182914,0.302575 224.378262,0.458322222 C224.573957,0.613726389 224.727246,0.811326389 224.838824,1.05112222 C224.950053,1.29091806 225.005668,1.57702639 225.005668,1.90944722 C225.005668,2.12385694 224.975775,2.32831806 224.915989,2.5224875 C224.856203,2.717 224.767914,2.89161528 224.651123,3.04701944 C224.534679,3.20276667 224.390428,3.33381389 224.219412,3.44119028 C224.048396,3.54822361 223.851658,3.62198056 223.62885,3.66211806 L225.604572,6.20690417 Z" id="Fill-29"></path>
                    <path d="M229.94254,1.91768056 L229.926203,1.91768056 L229.250134,3.89573889 L230.610615,3.89573889 L229.94254,1.91768056 Z M228.797914,5.12970972 L228.366203,6.20724722 L226.631016,6.20724722 L229.050615,0 L230.834465,0 L233.205401,6.20724722 L231.461872,6.20724722 L231.050668,5.12970972 L228.797914,5.12970972 Z" id="Fill-30"></path>
                    <path d="M236.259011,4.84017083 L238.222219,4.84017083 L238.222219,6.20690417 L234.625668,6.20690417 L234.625668,0 L236.259011,0 L236.259011,4.84017083 Z" id="Fill-31"></path>
                    <path d="M107.685535,13.0330236 L107.674064,13.0330236 L107.190909,14.4453833 L108.162433,14.4453833 L107.685535,13.0330236 Z M106.867995,15.3266931 L106.560027,16.0958236 L105.320856,16.0958236 L107.048743,11.6638889 L108.322326,11.6638889 L110.014759,16.0958236 L108.770374,16.0958236 L108.47631,15.3266931 L106.867995,15.3266931 Z" id="Fill-32"></path>
                    <path d="M110.534759,11.6638889 L111.700936,11.6638889 L113.841765,14.3733417 L113.853235,14.3733417 L113.853235,11.6638889 L115.019412,11.6638889 L115.019412,16.0958236 L113.853235,16.0958236 L111.715535,13.3801958 L111.700936,13.3801958 L111.700936,16.0958236 L110.534759,16.0958236 L110.534759,11.6638889 Z" id="Fill-33"></path>
                    <path d="M117.262433,15.1198306 L117.527299,15.1198306 C117.701791,15.1198306 117.866551,15.0961597 118.022968,15.0477889 C118.179037,15.0001042 118.315294,14.9256611 118.432781,14.8241167 C118.550267,14.7229153 118.644118,14.5942694 118.713636,14.4381792 C118.783155,14.2820889 118.81861,14.0961528 118.81861,13.8800278 C118.81861,13.6810556 118.786631,13.5040389 118.723717,13.3500069 C118.660802,13.1963181 118.572861,13.0666431 118.459198,12.961325 C118.345882,12.8560069 118.211016,12.776075 118.054599,12.7215292 C117.898529,12.6673264 117.726818,12.6398819 117.53877,12.6398819 L117.262433,12.6398819 L117.262433,15.1198306 Z M116.096257,11.6638889 L117.750802,11.6638889 C117.958316,11.6638889 118.159225,11.6896181 118.352834,11.7410764 C118.546791,11.7928778 118.72893,11.8662917 118.898209,11.960975 C119.067834,12.0553153 119.222513,12.1698958 119.362246,12.3040306 C119.501631,12.4381653 119.620856,12.5870514 119.71992,12.7517181 C119.818636,12.9163847 119.895802,13.0940875 119.95107,13.2841403 C120.006684,13.4745361 120.034144,13.6728222 120.034144,13.8800278 C120.034144,14.0862042 120.006684,14.2848333 119.95107,14.4755722 C119.895802,14.6659681 119.818636,14.8433278 119.718529,15.0076514 C119.618422,15.1723181 119.49885,15.3218903 119.359118,15.4556819 C119.219733,15.5894736 119.065401,15.7037111 118.896818,15.7987375 C118.728235,15.8934208 118.546791,15.9664917 118.352834,16.01795 C118.159225,16.0700944 117.958316,16.0958236 117.750802,16.0958236 L116.096257,16.0958236 L116.096257,11.6638889 Z" id="Fill-34"></path>
                    <path d="M125.724251,10.9722889 L125.724251,12.0093458 L127.569626,12.0093458 L127.569626,13.3764222 L125.724251,13.3764222 L125.724251,14.4457264 L127.671471,14.4457264 L127.671471,15.8124597 L124.090909,15.8124597 L124.090909,9.60555556 L127.671471,9.60555556 L127.671471,10.9722889 L125.724251,10.9722889 Z" id="Fill-35"></path>
                    <path d="M129.304813,9.60555556 L130.938155,9.60555556 L133.93615,13.4007792 L133.952487,13.4007792 L133.952487,9.60555556 L135.585829,9.60555556 L135.585829,15.8128028 L133.952487,15.8128028 L130.958663,12.0096889 L130.938155,12.0096889 L130.938155,15.8128028 L129.304813,15.8128028 L129.304813,9.60555556 Z" id="Fill-36"></path>
                    <path d="M140.247059,13.3764222 L141.774733,9.60555556 L143.550588,9.60555556 L140.866123,15.8128028 L139.595321,15.8128028 L136.951872,9.60555556 L138.731898,9.60555556 L140.247059,13.3764222 Z" id="Fill-37"></path>
                    <path d="M146.232273,15.8128028 L144.59893,15.8128028 L144.59893,9.60555556 L146.232273,9.60555556 L146.232273,15.8128028 Z" id="Fill-38"></path>
                    <path d="M150.055802,12.3873931 L150.214652,12.3873931 C150.347781,12.3873931 150.482299,12.3788167 150.617861,12.3613208 C150.75377,12.343825 150.875775,12.3078042 150.984572,12.2525722 C151.093021,12.1976833 151.18131,12.1201528 151.249439,12.0196375 C151.317219,11.9191222 151.351283,11.7843014 151.351283,11.6155181 C151.351283,11.4467347 151.317219,11.3112278 151.249439,11.2093403 C151.18131,11.1077958 151.093021,11.0292361 150.984572,10.9743472 C150.875775,10.9194583 150.75377,10.8830944 150.617861,10.8655986 C150.482299,10.8484458 150.347781,10.8395264 150.214652,10.8395264 L150.055802,10.8395264 L150.055802,12.3873931 Z M153.652701,15.8124597 L151.615802,15.8124597 L150.07631,13.42445 L150.055802,13.42445 L150.055802,15.8124597 L148.42246,15.8124597 L148.42246,9.60555556 L150.86639,9.60555556 C151.176096,9.60555556 151.464599,9.64294861 151.731898,9.71807778 C151.999545,9.79320694 152.231043,9.90813056 152.42639,10.0638778 C152.622086,10.2192819 152.775374,10.4168819 152.886952,10.6566778 C152.998182,10.8964736 153.053797,11.1825819 153.053797,11.5150028 C153.053797,11.7294125 153.023904,11.9338736 152.964118,12.1280431 C152.904332,12.3225556 152.816043,12.4971708 152.699251,12.652575 C152.582807,12.8083222 152.438556,12.9393694 152.26754,13.0467458 C152.096524,13.1537792 151.899786,13.2275361 151.676979,13.2676736 L153.652701,15.8124597 Z" id="Fill-39"></path>
                    <path d="M157.810267,11.1695458 C157.565909,11.1695458 157.336497,11.2144861 157.122032,11.3043667 C156.907219,11.3939042 156.719171,11.5146597 156.55754,11.6659472 C156.396257,11.8175778 156.268342,11.9915069 156.17484,12.1887639 C156.080989,12.3856778 156.034412,12.5915111 156.034412,12.8059208 C156.034412,13.0738472 156.080989,13.3208472 156.17484,13.5476069 C156.268342,13.7740236 156.396257,13.9695653 156.55754,14.134575 C156.719171,14.2992417 156.907219,14.4278875 157.122032,14.5205125 C157.336497,14.6127944 157.565909,14.6591069 157.810267,14.6591069 C158.054626,14.6591069 158.284733,14.6127944 158.500588,14.5205125 C158.716444,14.4278875 158.904492,14.2992417 159.064733,14.134575 C159.224973,13.9695653 159.352193,13.7740236 159.445695,13.5476069 C159.539545,13.3208472 159.586123,13.0738472 159.586123,12.8059208 C159.586123,12.5915111 159.539545,12.3856778 159.445695,12.1887639 C159.352193,11.9915069 159.224973,11.8175778 159.064733,11.6659472 C158.904492,11.5146597 158.716444,11.3939042 158.500588,11.3043667 C158.284733,11.2144861 158.054626,11.1695458 157.810267,11.1695458 M157.810267,9.60555556 C158.111631,9.60555556 158.407086,9.64123333 158.696283,9.71224583 C158.985481,9.78325833 159.259037,9.88445972 159.516952,10.01585 C159.774866,10.1472403 160.01262,10.3071042 160.229866,10.4961278 C160.447112,10.6851514 160.63377,10.8981889 160.78984,11.1352403 C160.945909,11.3726347 161.068262,11.6306125 161.156551,11.9091736 C161.24484,12.1880778 161.288984,12.4841347 161.288984,12.7976875 C161.288984,13.3016361 161.202781,13.7633889 161.030374,14.1826028 C160.857968,14.6021597 160.616738,14.9627111 160.30738,15.2642569 C159.997674,15.5654597 159.630267,15.8007958 159.205508,15.9695792 C158.780401,16.1383625 158.315321,16.2227542 157.810267,16.2227542 C157.473449,16.2227542 157.153663,16.184675 156.850909,16.1081736 C156.548155,16.0320153 156.268342,15.9225806 156.011818,15.7805556 C155.755294,15.6385306 155.523102,15.4663167 155.315241,15.2642569 C155.107727,15.0618542 154.93115,14.8333792 154.785856,14.5788319 C154.640561,14.3239417 154.528636,14.0474389 154.449733,13.7486375 C154.370829,13.4494931 154.331551,13.1328528 154.331551,12.7976875 C154.331551,12.4841347 154.375695,12.1880778 154.463984,11.9091736 C154.552273,11.6306125 154.674973,11.3726347 154.832781,11.1352403 C154.990241,10.8981889 155.176898,10.6851514 155.392754,10.4961278 C155.60861,10.3071042 155.845668,10.1472403 156.103583,10.01585 C156.361497,9.88445972 156.635053,9.78325833 156.924251,9.71224583 C157.213449,9.64123333 157.508904,9.60555556 157.810267,9.60555556" id="Fill-40"></path>
                    <path d="M163.02139,9.60555556 L164.654733,9.60555556 L167.652727,13.4007792 L167.669064,13.4007792 L167.669064,9.60555556 L169.302406,9.60555556 L169.302406,15.8128028 L167.669064,15.8128028 L164.675241,12.0096889 L164.654733,12.0096889 L164.654733,15.8128028 L163.02139,15.8128028 L163.02139,9.60555556 Z" id="Fill-41"></path>
                    <path d="M171.735561,9.60555556 L173.344572,9.60555556 L174.623717,12.9222167 L175.972032,9.60555556 L177.601203,9.60555556 L178.550134,15.8128028 L176.916791,15.8128028 L176.456578,12.23885 L176.440241,12.23885 L174.929251,15.8128028 L174.281337,15.8128028 L172.835348,12.23885 L172.819011,12.23885 L172.293449,15.8128028 L170.668449,15.8128028 L171.735561,9.60555556 Z" id="Fill-42"></path>
                    <path d="M181.686818,10.9722889 L181.686818,12.0093458 L183.532193,12.0093458 L183.532193,13.3764222 L181.686818,13.3764222 L181.686818,14.4457264 L183.634037,14.4457264 L183.634037,15.8124597 L180.053476,15.8124597 L180.053476,9.60555556 L183.634037,9.60555556 L183.634037,10.9722889 L181.686818,10.9722889 Z" id="Fill-43"></path>
                    <path d="M185.614973,9.60555556 L187.248316,9.60555556 L190.24631,13.4007792 L190.262647,13.4007792 L190.262647,9.60555556 L191.895989,9.60555556 L191.895989,15.8128028 L190.262647,15.8128028 L187.268824,12.0096889 L187.248316,12.0096889 L187.248316,15.8128028 L185.614973,15.8128028 L185.614973,9.60555556 Z" id="Fill-44"></path>
                    <path d="M196.247861,15.8128028 L194.614519,15.8128028 L194.614519,10.9726319 L193.262032,10.9726319 L193.262032,9.60555556 L197.600348,9.60555556 L197.600348,10.9726319 L196.247861,10.9726319 L196.247861,15.8128028 Z" id="Fill-45"></path>
                    <path d="M201.092273,11.5232361 L201.075936,11.5232361 L200.399866,13.5012944 L201.760348,13.5012944 L201.092273,11.5232361 Z M199.947647,14.7352653 L199.515936,15.8128028 L197.780749,15.8128028 L200.200348,9.60555556 L201.984198,9.60555556 L204.355134,15.8128028 L202.611604,15.8128028 L202.200401,14.7352653 L199.947647,14.7352653 Z" id="Fill-46"></path>
                    <path d="M207.408743,14.4457264 L209.371952,14.4457264 L209.371952,15.8124597 L205.775401,15.8124597 L205.775401,9.60555556 L207.408743,9.60555556 L207.408743,14.4457264 Z" id="Fill-47"></path>
                    <path d="M217.857059,11.3664597 C217.70516,11.2433028 217.536578,11.1441597 217.352005,11.0690306 C217.167433,10.9939014 216.974519,10.9565083 216.77361,10.9565083 C216.697487,10.9565083 216.618583,10.9671431 216.537246,10.9884125 C216.455909,11.010025 216.380481,11.0422722 216.31131,11.0851542 C216.242139,11.1280361 216.184786,11.1822389 216.140294,11.2477625 C216.095455,11.3136292 216.072861,11.3891014 216.072861,11.4748653 C216.072861,11.5661181 216.09754,11.6439917 216.146203,11.7081431 C216.195214,11.7726375 216.25639,11.8275264 216.329385,11.8731528 C216.402727,11.9184361 216.481631,11.9568583 216.565749,11.9877333 C216.649866,12.0182653 216.72738,12.0446806 216.797941,12.06595 L217.213316,12.1904792 C217.433342,12.2549736 217.637727,12.3318181 217.826471,12.4216986 C218.015214,12.5115792 218.17893,12.6234153 218.317273,12.75755 C218.455963,12.8913417 218.565107,13.0501764 218.645401,13.2337111 C218.725348,13.4175889 218.765321,13.6350861 218.765321,13.8872319 C218.765321,14.0398917 218.755241,14.1932375 218.734733,14.3472694 C218.714572,14.5016444 218.679118,14.6508736 218.629064,14.7956431 C218.578663,14.9404125 218.511578,15.0776347 218.42746,15.2076528 C218.342995,15.3376708 218.238717,15.4549958 218.113583,15.5596278 C217.866444,15.7658042 217.587674,15.9146903 217.276578,16.0056 C216.965829,16.0968528 216.649866,16.1424792 216.329385,16.1424792 C215.933128,16.1424792 215.546257,16.0800431 215.16877,15.9555139 C214.791283,15.8309847 214.440909,15.6573986 214.117647,15.4347556 L214.818396,14.1325167 C214.921631,14.2206819 215.02869,14.3040444 215.140267,14.381575 C215.251497,14.4594486 215.368289,14.5277167 215.490294,14.5867222 C215.612647,14.6457278 215.738824,14.6916972 215.869171,14.7253167 C215.999519,14.7589361 216.134037,14.7757458 216.27238,14.7757458 C216.36762,14.7757458 216.462513,14.7633958 216.557754,14.7393819 C216.652647,14.7153681 216.73746,14.6776319 216.812193,14.6268597 C216.886925,14.5757444 216.947406,14.5109069 216.993636,14.4320042 C217.039519,14.3527583 217.062807,14.2584181 217.062807,14.1482972 C217.062807,14.035775 217.027353,13.9407486 216.956791,13.862875 C216.88623,13.7853444 216.800027,13.7187917 216.698182,13.6639028 C216.596337,13.6090139 216.488235,13.5640736 216.374225,13.529425 C216.260214,13.4944333 216.159759,13.4649306 216.072861,13.4409167 C215.814947,13.3685319 215.581364,13.2934028 215.37246,13.2158722 C215.163209,13.1379986 214.984545,13.035425 214.836818,12.9081514 C214.688743,12.7808778 214.574037,12.6206708 214.492353,12.4278736 C214.411016,12.2347333 214.370348,11.9880764 214.370348,11.6879028 C214.370348,11.37435 214.423877,11.0889278 214.531283,10.8316361 C214.638342,10.5743444 214.788503,10.355475 214.981417,10.1743417 C215.173984,9.99355139 215.402701,9.85358472 215.667567,9.75444167 C215.932433,9.65529861 216.222326,9.60555556 216.537246,9.60555556 C216.694706,9.60555556 216.860508,9.6175625 217.034305,9.64191944 C217.208102,9.66593333 217.380508,9.70023889 217.551524,9.74415 C217.72254,9.78840417 217.889733,9.84226389 218.052406,9.90504306 C218.215428,9.96816528 218.367674,10.0384917 218.508797,10.1160222 L217.857059,11.3664597 Z" id="Fill-48"></path>
                    <path d="M224.841604,11.8529125 C224.757487,11.7403903 224.661551,11.6419333 224.554492,11.5575417 C224.447086,11.47315 224.331684,11.4021375 224.208289,11.3445042 C224.084545,11.2868708 223.954893,11.2433028 223.819332,11.2138 C223.683422,11.1842972 223.546123,11.1695458 223.407781,11.1695458 C223.157861,11.1695458 222.92984,11.2138 222.723369,11.3023083 C222.517246,11.3904736 222.340668,11.5126014 222.193984,11.6680056 C222.047299,11.8234097 221.933289,12.0055722 221.851604,12.2148361 C221.770267,12.4237569 221.729599,12.6488014 221.729599,12.8899694 C221.729599,13.1366264 221.770267,13.3630431 221.851604,13.5695625 C221.933289,13.7757389 222.04869,13.9534417 222.198155,14.1023278 C222.347273,14.2508708 222.526631,14.3675097 222.735535,14.4519014 C222.944786,14.5362931 223.176979,14.5784889 223.432112,14.5784889 C223.565241,14.5784889 223.697674,14.5630514 223.829412,14.5325194 C223.96115,14.5016444 224.087326,14.4573903 224.208289,14.3997569 C224.328904,14.3421236 224.443262,14.2731694 224.550321,14.1925514 C224.657727,14.1122764 224.754706,14.0210236 224.841604,13.9191361 L224.841604,15.8529403 C224.705695,15.8930778 224.578128,15.9315 224.458556,15.9675208 C224.339332,16.0038847 224.22254,16.0344167 224.108529,16.0601458 C223.994171,16.0855319 223.879465,16.1054292 223.764064,16.1201806 C223.648663,16.1349319 223.527353,16.1424792 223.399786,16.1424792 C222.959733,16.1424792 222.538102,16.0632333 222.134893,15.9054278 C221.731684,15.7472792 221.365668,15.5218917 221.037193,15.2299514 C220.689599,14.9191431 220.434118,14.5657958 220.271444,14.1705958 C220.108422,13.7753958 220.026738,13.3458903 220.026738,12.8820792 C220.026738,12.4560042 220.105642,12.0470819 220.263102,11.6559986 C220.420561,11.2645722 220.651364,10.9163708 220.955508,10.6107083 C221.110535,10.4553042 221.28016,10.3153375 221.464733,10.1904653 C221.649305,10.0659361 221.844305,9.95993194 222.049385,9.87313889 C222.254465,9.78600278 222.466845,9.71945 222.686872,9.67382361 C222.906898,9.62854028 223.126578,9.60555556 223.346604,9.60555556 C223.61008,9.60555556 223.863824,9.633 224.108529,9.68788889 C224.352888,9.74312083 224.597246,9.81996528 224.841604,9.91910833 L224.841604,11.8529125 Z" id="Fill-49"></path>
                    <path d="M228.264358,15.8128028 L226.631016,15.8128028 L226.631016,9.60555556 L228.264358,9.60555556 L228.264358,15.8128028 Z" id="Fill-50"></path>
                    <path d="M232.087888,10.9722889 L232.087888,12.0093458 L233.933262,12.0093458 L233.933262,13.3764222 L232.087888,13.3764222 L232.087888,14.4457264 L234.035107,14.4457264 L234.035107,15.8124597 L230.454545,15.8124597 L230.454545,9.60555556 L234.035107,9.60555556 L234.035107,10.9722889 L232.087888,10.9722889 Z" id="Fill-51"></path>
                    <path d="M236.016043,9.60555556 L237.649385,9.60555556 L240.64738,13.4007792 L240.663717,13.4007792 L240.663717,9.60555556 L242.297059,9.60555556 L242.297059,15.8128028 L240.663717,15.8128028 L237.669893,12.0096889 L237.649385,12.0096889 L237.649385,15.8128028 L236.016043,15.8128028 L236.016043,9.60555556 Z" id="Fill-52"></path>
                    <path d="M248.477968,11.8529125 C248.39385,11.7403903 248.297914,11.6419333 248.190856,11.5575417 C248.083449,11.47315 247.968048,11.4021375 247.844652,11.3445042 C247.720909,11.2868708 247.591257,11.2433028 247.455695,11.2138 C247.319786,11.1842972 247.182487,11.1695458 247.044144,11.1695458 C246.794225,11.1695458 246.566203,11.2138 246.359733,11.3023083 C246.15361,11.3904736 245.977032,11.5126014 245.830348,11.6680056 C245.683663,11.8234097 245.569652,12.0055722 245.487968,12.2148361 C245.406631,12.4237569 245.365963,12.6488014 245.365963,12.8899694 C245.365963,13.1366264 245.406631,13.3630431 245.487968,13.5695625 C245.569652,13.7757389 245.685053,13.9534417 245.834519,14.1023278 C245.983636,14.2508708 246.162995,14.3675097 246.371898,14.4519014 C246.58115,14.5362931 246.813342,14.5784889 247.068476,14.5784889 C247.201604,14.5784889 247.334037,14.5630514 247.465775,14.5325194 C247.597513,14.5016444 247.72369,14.4573903 247.844652,14.3997569 C247.965267,14.3421236 248.079626,14.2731694 248.186684,14.1925514 C248.294091,14.1122764 248.39107,14.0210236 248.477968,13.9191361 L248.477968,15.8529403 C248.342059,15.8930778 248.214492,15.9315 248.09492,15.9675208 C247.975695,16.0038847 247.858904,16.0344167 247.744893,16.0601458 C247.630535,16.0855319 247.515829,16.1054292 247.400428,16.1201806 C247.285027,16.1349319 247.163717,16.1424792 247.03615,16.1424792 C246.596096,16.1424792 246.174465,16.0632333 245.771257,15.9054278 C245.368048,15.7472792 245.002032,15.5218917 244.673556,15.2299514 C244.325963,14.9191431 244.070481,14.5657958 243.907807,14.1705958 C243.744786,13.7753958 243.663102,13.3458903 243.663102,12.8820792 C243.663102,12.4560042 243.742005,12.0470819 243.899465,11.6559986 C244.056925,11.2645722 244.287727,10.9163708 244.591872,10.6107083 C244.746898,10.4553042 244.916524,10.3153375 245.101096,10.1904653 C245.285668,10.0659361 245.480668,9.95993194 245.685749,9.87313889 C245.890829,9.78600278 246.103209,9.71945 246.323235,9.67382361 C246.543262,9.62854028 246.762941,9.60555556 246.982968,9.60555556 C247.246444,9.60555556 247.500187,9.633 247.744893,9.68788889 C247.989251,9.74312083 248.23361,9.81996528 248.477968,9.91910833 L248.477968,11.8529125 Z" id="Fill-53"></path>
                    <path d="M251.900722,10.9722889 L251.900722,12.0093458 L253.746096,12.0093458 L253.746096,13.3764222 L251.900722,13.3764222 L251.900722,14.4457264 L253.847941,14.4457264 L253.847941,15.8124597 L250.26738,15.8124597 L250.26738,9.60555556 L253.847941,9.60555556 L253.847941,10.9722889 L251.900722,10.9722889 Z" id="Fill-54"></path>
                    <path d="M258.873102,11.3664597 C258.721203,11.2433028 258.55262,11.1441597 258.368048,11.0690306 C258.183476,10.9939014 257.990561,10.9565083 257.789652,10.9565083 C257.713529,10.9565083 257.634626,10.9671431 257.553289,10.9884125 C257.471952,11.010025 257.396524,11.0422722 257.327353,11.0851542 C257.258182,11.1280361 257.200829,11.1822389 257.156337,11.2477625 C257.111497,11.3136292 257.088904,11.3891014 257.088904,11.4748653 C257.088904,11.5661181 257.113583,11.6439917 257.162246,11.7081431 C257.211257,11.7726375 257.272433,11.8275264 257.345428,11.8731528 C257.41877,11.9184361 257.497674,11.9568583 257.581791,11.9877333 C257.665909,12.0182653 257.743422,12.0446806 257.813984,12.06595 L258.229358,12.1904792 C258.449385,12.2549736 258.65377,12.3318181 258.842513,12.4216986 C259.031257,12.5115792 259.194973,12.6234153 259.333316,12.75755 C259.472005,12.8913417 259.58115,13.0501764 259.661444,13.2337111 C259.74139,13.4175889 259.781364,13.6350861 259.781364,13.8872319 C259.781364,14.0398917 259.771283,14.1932375 259.750775,14.3472694 C259.730615,14.5016444 259.69516,14.6508736 259.645107,14.7956431 C259.594706,14.9404125 259.52762,15.0776347 259.443503,15.2076528 C259.359037,15.3376708 259.254759,15.4549958 259.129626,15.5596278 C258.882487,15.7658042 258.603717,15.9146903 258.29262,16.0056 C257.981872,16.0968528 257.665909,16.1424792 257.345428,16.1424792 C256.949171,16.1424792 256.562299,16.0800431 256.184813,15.9555139 C255.807326,15.8309847 255.456952,15.6573986 255.13369,15.4347556 L255.834439,14.1325167 C255.937674,14.2206819 256.044733,14.3040444 256.15631,14.381575 C256.26754,14.4594486 256.384332,14.5277167 256.506337,14.5867222 C256.62869,14.6457278 256.754866,14.6916972 256.885214,14.7253167 C257.015561,14.7589361 257.15008,14.7757458 257.288422,14.7757458 C257.383663,14.7757458 257.478556,14.7633958 257.573797,14.7393819 C257.66869,14.7153681 257.753503,14.6776319 257.828235,14.6268597 C257.902968,14.5757444 257.963449,14.5109069 258.009679,14.4320042 C258.055561,14.3527583 258.07885,14.2584181 258.07885,14.1482972 C258.07885,14.035775 258.043396,13.9407486 257.972834,13.862875 C257.902273,13.7853444 257.81607,13.7187917 257.714225,13.6639028 C257.61238,13.6090139 257.504278,13.5640736 257.390267,13.529425 C257.276257,13.4944333 257.175802,13.4649306 257.088904,13.4409167 C256.830989,13.3685319 256.597406,13.2934028 256.388503,13.2158722 C256.179251,13.1379986 256.000588,13.035425 255.852861,12.9081514 C255.704786,12.7808778 255.59008,12.6206708 255.508396,12.4278736 C255.427059,12.2347333 255.38639,11.9880764 255.38639,11.6879028 C255.38639,11.37435 255.43992,11.0889278 255.547326,10.8316361 C255.654385,10.5743444 255.804545,10.355475 255.99746,10.1743417 C256.190027,9.99355139 256.418743,9.85358472 256.68361,9.75444167 C256.948476,9.65529861 257.238369,9.60555556 257.553289,9.60555556 C257.710749,9.60555556 257.876551,9.6175625 258.050348,9.64191944 C258.224144,9.66593333 258.396551,9.70023889 258.567567,9.74415 C258.738583,9.78840417 258.905775,9.84226389 259.068449,9.90504306 C259.231471,9.96816528 259.383717,10.0384917 259.52484,10.1160222 L258.873102,11.3664597 Z" id="Fill-55"></path>
                </g>
            </g>
        </g>
    </g>
</svg>